<?xml version="1.0" encoding="utf-8"?>
<!-- Generator: Adobe Illustrator 24.1.2, SVG Export Plug-In . SVG Version: 6.00 Build 0)  -->
<svg version="1.1" id="Layer_1" xmlns="http://www.w3.org/2000/svg" xmlns:xlink="http://www.w3.org/1999/xlink" x="0px" y="0px"
	 viewBox="0 0 2500 2500" style="enable-background:new 0 0 2500 2500;" xml:space="preserve">
<style type="text/css">
	.st0{fill:#D3D4D6;}
</style>
<path class="st0" d="M2498.1,850.5c-0.6-3-1.1-6.1-1.9-9c-0.5-1.8-1.1-3.5-1.7-5.2c-0.8-2.6-1.7-5.2-2.8-7.8
	c-0.7-1.8-1.6-3.5-2.4-5.2c-1.1-2.4-2.3-4.8-3.7-7.1c-0.9-1.7-2-3.3-3.1-5c-2.5-3.9-5.2-7.6-8.2-11.2c-1.7-2-3.5-3.9-5.3-5.8
	c-1.4-1.4-2.8-2.8-4.3-4.2c-2-1.8-4-3.5-6.1-5.1c-1.6-1.2-3.2-2.5-4.9-3.7c-0.6-0.4-1.1-0.9-1.8-1.3L1309.6,18.1
	c-36.1-24.1-83.1-24.1-119.2,0L47.8,779.8c-0.6,0.4-1.1,0.9-1.8,1.3c-1.7,1.2-3.3,2.4-4.9,3.7c-2.1,1.6-4.1,3.3-6.1,5
	c-1.5,1.3-2.9,2.7-4.3,4.2c-1.9,1.9-3.6,3.8-5.4,5.8c-1.3,1.5-2.5,3-3.7,4.7c-1.6,2.1-3.1,4.3-4.5,6.5c-1,1.7-2.1,3.3-3.1,5
	c-1.3,2.3-2.5,4.7-3.6,7.1c-0.8,1.7-1.7,3.5-2.4,5.2c-1,2.6-2,5.2-2.8,7.8c-0.6,1.8-1.2,3.5-1.7,5c-0.8,3-1.3,6-1.9,9
	c-0.3,1.6-0.7,3.1-0.9,4.6c-0.6,4.6-0.9,9.3-0.9,14v761.9c0,4.7,0.3,9.4,1,14c0.2,1.7,0.7,3,1,4.6c0.5,3,1,6.1,2,9.1
	c0.5,1.7,1,3.4,1.7,5.2c0.8,2.7,1.7,5.4,2.7,7.9c0.7,1.7,1.7,3.4,2.4,5c1.1,2.4,2.4,4.7,3.7,7.2c0.9,1.7,2,3.4,3,4.9
	c1.4,2.4,3,4.4,4.7,6.4c1.2,1.7,2.4,3,3.7,4.6c1.7,2,3.4,4,5.4,5.8c1.4,1.3,2.7,3,4.4,4c2,1.7,4,3.4,6.1,5.1
	c1.6,1.3,3.4,2.4,4.7,3.7c0.6,0.3,1,1,1.7,1.3l1142.3,762.1c17.6,11.9,38.4,18.2,59.6,18.1c21.2,0,41.9-6.3,59.6-18.1l1142.6-761.7
	c0.6-0.4,1.2-0.9,1.8-1.3c1.7-1.2,3.3-2.4,4.9-3.7c2.1-1.7,4.1-3.4,6.1-5.1c1.5-1.3,2.9-2.8,4.3-4.2c3.2-3.3,6.2-6.8,9-10.5
	c1.6-2.1,3.1-4.3,4.6-6.5c1-1.6,2.1-3.3,3.1-4.9c1.3-2.4,2.5-4.7,3.7-7.2c0.8-1.7,1.7-3.4,2.4-5.2c1-2.6,1.9-5.2,2.8-7.9
	c0.6-1.7,1.2-3.5,1.7-5.2c0.8-3,1.3-6,1.9-9c0.3-1.6,0.7-3.1,0.8-4.6c0.6-4.6,0.9-9.3,0.9-14V869.1c0-4.7-0.4-9.4-0.9-14
	c-0.3-1.7-0.8-3-1.1-4.6H2498.1L2498.1,850.5z M1250,1504.1L870,1250L1250,995.9l380,254.2L1250,1504.1z M1142.6,809.2l-465.7,311.5
	L300.9,869.3l841.7-561.1L1142.6,809.2L1142.6,809.2z M483.6,1250l-268.7,179.7v-359.5L483.6,1250z M676.8,1379.3l465.8,311.5v501.1
	l-841.7-561.2L676.8,1379.3L676.8,1379.3L676.8,1379.3z M1357.4,1690.7l465.7-311.5l376,251.5l-841.7,561.1V1690.7L1357.4,1690.7z
	 M2016.3,1250l268.8-179.8v359.5L2016.3,1250L2016.3,1250L2016.3,1250z M1823.1,1120.8l-465.7-311.5V308.2l841.7,561.1
	L1823.1,1120.8L1823.1,1120.8z"/>
</svg>
